<svg xmlns="http://www.w3.org/2000/svg" xmlns:xlink="http://www.w3.org/1999/xlink" width="500" zoomAndPan="magnify" viewBox="0 0 375 374.999991" height="500" preserveAspectRatio="xMidYMid meet" version="1.0"><defs><clipPath id="bb80873652"><path d="M 23 199 L 112 199 L 112 342.753906 L 23 342.753906 Z M 23 199 " clip-rule="nonzero"/></clipPath><clipPath id="49e65bdcdc"><path d="M 263 199 L 352 199 L 352 342.753906 L 263 342.753906 Z M 263 199 " clip-rule="nonzero"/></clipPath><clipPath id="693b318074"><path d="M 184 32.253906 L 192 32.253906 L 192 60 L 184 60 Z M 184 32.253906 " clip-rule="nonzero"/></clipPath></defs><path fill="#aa833f" d="M 59.242188 254.839844 C 59.242188 230.304688 52.339844 202.234375 41.78125 202.234375 C 41.78125 202.234375 40.527344 198.179688 27.914062 207.324219 C 19.363281 213.546875 2.988281 247.089844 1.007812 259.984375 C 0.238281 264.957031 0.0117188 260.375 0.0117188 272.433594 C 0.0117188 282.660156 9.515625 324.582031 9.511719 324.582031 L 59.242188 324.582031 L 59.242188 254.839844 " fill-opacity="1" fill-rule="nonzero"/><g clip-path="url(#bb80873652)"><path fill="#aa833f" d="M 111.390625 237.902344 C 111.390625 220.0625 105.488281 199.65625 88.617188 199.65625 L 47.566406 199.65625 C 30.675781 199.65625 23.117188 220.0625 23.117188 237.902344 L 23.117188 342.730469 L 111.390625 342.730469 L 111.390625 237.902344 " fill-opacity="1" fill-rule="nonzero"/></g><path fill="#aa833f" d="M 81.261719 215.25 L 51.558594 215.25 L 51.558594 178.304688 L 81.261719 178.304688 L 81.261719 215.25 " fill-opacity="1" fill-rule="nonzero"/><path fill="#ffffff" d="M 66.40625 223.605469 L 60.203125 214.316406 L 54.019531 205.03125 L 78.816406 205.03125 L 72.609375 214.316406 L 66.40625 223.605469 " fill-opacity="1" fill-rule="nonzero"/><path fill="#ffffff" d="M 66.40625 286.066406 L 59.074219 274.972656 L 51.75 263.882812 L 66.40625 222.339844 L 81.066406 263.882812 L 73.742188 274.972656 L 66.40625 286.066406 " fill-opacity="1" fill-rule="nonzero"/><path fill="#aa833f" d="M 136.4375 270.03125 L 115.847656 281.578125 L 81.117188 226.769531 L 100.101562 204.105469 L 136.4375 270.03125 " fill-opacity="1" fill-rule="nonzero"/><path fill="#aa833f" d="M 174.507812 294.957031 C 171.648438 300.835938 170.816406 310.730469 165.078125 307.949219 L 119.050781 285.238281 C 113.304688 282.453125 112.074219 274.191406 114.925781 268.324219 C 117.769531 262.4375 124.742188 259.9375 130.484375 262.71875 L 174.289062 284.570312 C 180.035156 287.363281 174.507812 294.957031 174.507812 294.957031 " fill-opacity="1" fill-rule="nonzero"/><path fill="#aa833f" d="M 177.429688 312.238281 C 184.96875 316.46875 191.484375 314.667969 194.355469 309.546875 C 197.242188 304.425781 195.417969 297.933594 187.867188 293.683594 C 180.320312 289.429688 167.984375 287.929688 165.078125 293.046875 C 162.203125 298.179688 169.875 307.976562 177.429688 312.238281 " fill-opacity="1" fill-rule="nonzero"/><path fill="#aa833f" d="M 180.492188 287.164062 C 176.121094 286.75 168.414062 289.929688 168.148438 292.890625 C 167.871094 295.859375 175.136719 297.46875 179.488281 297.871094 C 183.863281 298.292969 191.195312 294.582031 191.449219 291.644531 C 191.730469 288.6875 184.84375 287.546875 180.492188 287.164062 " fill-opacity="1" fill-rule="nonzero"/><path fill="#aa833f" d="M 16.710938 325.890625 C 16.597656 334.535156 21.324219 339.367188 27.199219 339.433594 C 33.082031 339.5 37.894531 334.769531 37.988281 326.105469 C 38.09375 317.449219 33.464844 305.914062 27.59375 305.835938 C 21.703125 305.78125 16.808594 317.214844 16.710938 325.890625 " fill-opacity="1" fill-rule="nonzero"/><path fill="#aa833f" d="M 40.15625 316.503906 C 38.414062 312.484375 31.925781 307.25 29.195312 308.449219 C 26.46875 309.632812 28.542969 316.773438 30.277344 320.789062 C 32.019531 324.816406 38.785156 329.460938 41.515625 328.277344 C 44.226562 327.09375 41.910156 320.519531 40.15625 316.503906 " fill-opacity="1" fill-rule="nonzero"/><path fill="#aa833f" d="M 66.246094 199.035156 C 51.871094 199.035156 43.605469 194.003906 38.289062 166.480469 C 36.265625 156.023438 38.230469 146.097656 43.519531 139.628906 C 47.839844 134.347656 53.273438 131.601562 66.277344 131.464844 L 67.121094 131.453125 C 77.847656 131.453125 85.070312 133.523438 89.226562 137.785156 C 94.675781 143.375 94.445312 152.753906 94.222656 161.8125 C 94.179688 163.644531 94.132812 165.460938 94.132812 167.222656 C 94.132812 189.226562 79.117188 199.035156 66.246094 199.035156 " fill-opacity="1" fill-rule="nonzero"/><path fill="#aa833f" d="M 315.757812 254.839844 C 315.757812 230.304688 322.65625 202.238281 333.222656 202.238281 C 333.222656 202.238281 334.46875 198.179688 347.089844 207.324219 C 355.640625 213.546875 372.019531 247.089844 373.992188 259.984375 C 374.757812 264.957031 374.988281 260.375 374.988281 272.433594 C 374.988281 282.660156 365.488281 324.582031 365.488281 324.582031 L 315.757812 324.582031 L 315.757812 254.839844 " fill-opacity="1" fill-rule="nonzero"/><g clip-path="url(#49e65bdcdc)"><path fill="#aa833f" d="M 263.617188 237.902344 C 263.617188 220.0625 269.511719 199.65625 286.394531 199.65625 L 327.449219 199.65625 C 344.332031 199.65625 351.894531 220.0625 351.894531 237.902344 L 351.894531 342.730469 L 263.617188 342.730469 L 263.617188 237.902344 " fill-opacity="1" fill-rule="nonzero"/></g><path fill="#aa833f" d="M 293.746094 215.25 L 323.441406 215.25 L 323.441406 178.304688 L 293.746094 178.304688 L 293.746094 215.25 " fill-opacity="1" fill-rule="nonzero"/><path fill="#ffffff" d="M 308.597656 223.605469 L 314.800781 214.316406 L 324.324219 201.691406 L 308.597656 206.699219 L 292.84375 201.691406 L 302.394531 214.316406 L 308.597656 223.605469 " fill-opacity="1" fill-rule="nonzero"/><path fill="#aa833f" d="M 238.5625 270.03125 L 259.160156 281.578125 L 293.890625 226.769531 L 274.914062 204.105469 L 238.5625 270.03125 " fill-opacity="1" fill-rule="nonzero"/><path fill="#aa833f" d="M 200.5 294.957031 C 203.355469 300.835938 204.183594 310.730469 209.925781 307.949219 L 255.949219 285.238281 C 261.699219 282.453125 262.933594 274.191406 260.082031 268.324219 C 257.230469 262.4375 250.261719 259.9375 244.515625 262.71875 L 200.714844 284.570312 C 194.96875 287.363281 200.5 294.957031 200.5 294.957031 " fill-opacity="1" fill-rule="nonzero"/><path fill="#aa833f" d="M 197.570312 312.238281 C 190.042969 316.46875 183.519531 314.667969 180.648438 309.546875 C 177.765625 304.425781 179.585938 297.933594 187.132812 293.683594 C 194.691406 289.429688 207.023438 287.929688 209.925781 293.046875 C 212.796875 298.179688 205.128906 307.976562 197.570312 312.238281 " fill-opacity="1" fill-rule="nonzero"/><path fill="#aa833f" d="M 194.515625 287.164062 C 198.882812 286.75 206.59375 289.929688 206.859375 292.890625 C 207.136719 295.859375 199.863281 297.46875 195.507812 297.871094 C 191.140625 298.292969 183.8125 294.582031 183.558594 291.644531 C 183.269531 288.6875 190.160156 287.546875 194.515625 287.164062 " fill-opacity="1" fill-rule="nonzero"/><path fill="#aa833f" d="M 361.257812 327.148438 C 360.496094 335.769531 355.332031 340.121094 349.480469 339.605469 C 343.625 339.085938 339.292969 333.90625 340.058594 325.285156 C 340.804688 316.648438 346.558594 305.628906 352.390625 306.121094 C 358.269531 306.652344 362.003906 318.511719 361.257812 327.148438 " fill-opacity="1" fill-rule="nonzero"/><path fill="#aa833f" d="M 338.851562 315.507812 C 340.984375 311.679688 347.945312 307.109375 350.546875 308.570312 C 353.148438 310.011719 350.371094 316.929688 348.246094 320.742188 C 346.121094 324.582031 338.925781 328.53125 336.335938 327.082031 C 333.75 325.644531 336.691406 319.324219 338.851562 315.507812 " fill-opacity="1" fill-rule="nonzero"/><path fill="#aa833f" d="M 308.753906 199.035156 C 323.125 199.035156 331.398438 194.003906 336.714844 166.480469 C 338.734375 156.023438 336.769531 146.101562 331.484375 139.632812 C 327.167969 134.347656 321.726562 131.605469 308.726562 131.464844 L 307.875 131.457031 C 297.152344 131.457031 289.9375 133.527344 285.773438 137.789062 C 280.328125 143.375 280.554688 152.757812 280.777344 161.816406 C 280.820312 163.644531 280.863281 165.464844 280.863281 167.222656 C 280.863281 189.226562 295.882812 199.035156 308.753906 199.035156 " fill-opacity="1" fill-rule="nonzero"/><path fill="#ffffff" d="M 315.535156 240.410156 C 315.535156 244.210938 312.457031 247.296875 308.65625 247.296875 C 304.851562 247.296875 301.761719 244.210938 301.761719 240.410156 C 301.761719 236.597656 304.851562 233.515625 308.65625 233.515625 C 312.457031 233.515625 315.535156 236.597656 315.535156 240.410156 " fill-opacity="1" fill-rule="nonzero"/><path fill="#ffffff" d="M 315.535156 267.128906 C 315.535156 270.933594 312.457031 274.019531 308.65625 274.019531 C 304.851562 274.019531 301.761719 270.933594 301.761719 267.128906 C 301.761719 263.324219 304.851562 260.246094 308.65625 260.246094 C 312.457031 260.246094 315.535156 263.324219 315.535156 267.128906 " fill-opacity="1" fill-rule="nonzero"/><path fill="#ffffff" d="M 315.535156 293.847656 C 315.535156 297.660156 312.457031 300.746094 308.65625 300.746094 C 304.851562 300.746094 301.761719 297.660156 301.761719 293.847656 C 301.761719 290.054688 304.851562 286.964844 308.65625 286.964844 C 312.457031 286.964844 315.535156 290.054688 315.535156 293.847656 " fill-opacity="1" fill-rule="nonzero"/><path fill="#ffffff" d="M 193.480469 68.058594 C 191.367188 68 189.710938 67.523438 187.308594 67.839844 C 184.855469 67.523438 183.230469 68 181.113281 68.058594 C 159.597656 70.53125 145.65625 93.109375 152.746094 113.449219 C 154.621094 118.796875 157.425781 123.660156 160.050781 128.609375 C 163.378906 134.929688 165.761719 141.46875 167.144531 148.59375 C 167.796875 152 167.675781 154.03125 168.714844 157.203125 L 205.867188 157.203125 C 206.90625 154.03125 206.789062 152 207.449219 148.59375 C 208.824219 141.46875 211.203125 134.929688 214.550781 128.609375 C 217.152344 123.660156 219.984375 118.796875 221.828125 113.449219 C 228.929688 93.109375 215.003906 70.53125 193.480469 68.058594 " fill-opacity="1" fill-rule="nonzero"/><path fill="#aa833f" d="M 171.453125 153.679688 L 203.140625 153.679688 C 203.261719 152.984375 203.347656 152.292969 203.445312 151.515625 C 203.59375 150.433594 203.742188 149.273438 204 147.921875 C 205.410156 140.625 207.847656 133.765625 211.445312 126.964844 L 212.871094 124.269531 C 215.035156 120.230469 217.082031 116.417969 218.511719 112.296875 C 221.5625 103.535156 220.40625 93.882812 215.335938 85.796875 C 210.308594 77.785156 202.203125 72.589844 193.078125 71.546875 C 192.558594 71.546875 191.8125 71.46875 191.070312 71.386719 C 190.050781 71.277344 189.050781 71.160156 187.773438 71.328125 L 187.308594 71.386719 L 186.851562 71.328125 C 185.554688 71.160156 184.546875 71.277344 183.519531 71.386719 C 182.785156 71.46875 182.035156 71.546875 181.21875 71.566406 C 172.398438 72.589844 164.285156 77.785156 159.253906 85.796875 C 154.175781 93.882812 153.019531 103.539062 156.058594 112.292969 C 157.546875 116.503906 159.636719 120.410156 161.863281 124.542969 L 163.171875 126.957031 C 166.746094 133.796875 169.1875 140.648438 170.597656 147.921875 C 170.855469 149.28125 171 150.433594 171.144531 151.515625 C 171.242188 152.289062 171.324219 152.984375 171.453125 153.679688 Z M 208.40625 160.714844 L 166.171875 160.714844 L 165.378906 158.296875 C 164.617188 155.988281 164.386719 154.167969 164.167969 152.394531 C 164.042969 151.445312 163.921875 150.445312 163.6875 149.261719 C 162.40625 142.671875 160.199219 136.449219 156.941406 130.238281 L 155.671875 127.867188 C 153.421875 123.679688 151.09375 119.355469 149.425781 114.613281 C 145.664062 103.828125 147.078125 91.964844 153.296875 82.0625 C 159.46875 72.238281 169.457031 65.859375 180.722656 64.570312 C 181.628906 64.523438 182.210938 64.457031 182.789062 64.402344 C 184.199219 64.25 185.589844 64.125 187.304688 64.292969 C 189 64.125 190.394531 64.25 191.796875 64.402344 C 192.378906 64.457031 192.964844 64.523438 193.597656 64.542969 C 205.140625 65.859375 215.125 72.238281 221.292969 82.0625 C 227.511719 91.964844 228.90625 103.828125 225.152344 114.601562 C 223.542969 119.246094 221.269531 123.488281 219.066406 127.597656 L 217.65625 130.238281 C 214.394531 136.433594 212.183594 142.652344 210.90625 149.261719 C 210.675781 150.449219 210.550781 151.464844 210.417969 152.414062 C 210.203125 154.171875 209.96875 156 209.203125 158.296875 L 208.40625 160.714844 " fill-opacity="1" fill-rule="nonzero"/><path fill="#aa833f" d="M 183.046875 157.152344 C 182.996094 156.609375 181.742188 144.144531 185.160156 142.75 C 185.335938 141.863281 186.789062 134.464844 185.308594 129.101562 C 184.945312 128.914062 183.863281 128.28125 184.015625 127.628906 C 184.109375 127.226562 184.609375 126.714844 187.890625 126.714844 L 187.890625 127.050781 C 184.820312 127.050781 184.378906 127.503906 184.328125 127.695312 C 184.257812 128.023438 184.972656 128.546875 185.5 128.835938 L 185.570312 128.851562 L 185.582031 128.933594 C 187.234375 134.71875 185.464844 142.828125 185.457031 142.921875 L 185.449219 142.992188 L 185.339844 143.039062 C 182.078125 144.148438 183.371094 156.984375 183.371094 157.113281 L 183.046875 157.152344 " fill-opacity="1" fill-rule="nonzero"/><path fill="#aa833f" d="M 191.910156 157.152344 L 191.585938 157.113281 C 191.613281 156.984375 192.890625 144.148438 189.621094 143.039062 L 189.519531 142.992188 L 189.507812 142.921875 C 189.5 142.828125 187.730469 134.71875 189.367188 128.933594 L 189.398438 128.851562 L 189.460938 128.835938 C 190.003906 128.546875 190.71875 128.023438 190.621094 127.695312 C 190.597656 127.503906 190.132812 127.050781 187.0625 127.050781 L 187.0625 126.714844 C 190.34375 126.714844 190.859375 127.226562 190.960938 127.628906 C 191.101562 128.28125 190.011719 128.914062 189.648438 129.101562 C 188.171875 134.464844 189.640625 141.863281 189.804688 142.75 C 193.199219 144.144531 191.96875 156.609375 191.910156 157.152344 " fill-opacity="1" fill-rule="nonzero"/><path fill="#aa833f" d="M 184.195312 143.792969 C 183.757812 142.816406 173.921875 119.789062 175.628906 116.65625 C 175.78125 116.429688 175.933594 116.273438 176.179688 116.25 C 179.195312 115.757812 181.828125 115.851562 184.363281 115.957031 C 185.335938 116.003906 186.265625 116.011719 187.175781 116.011719 L 187.175781 116.347656 C 186.25 116.347656 185.335938 116.289062 184.34375 116.273438 C 181.828125 116.175781 179.207031 116.085938 176.230469 116.574219 C 176.113281 116.589844 175.996094 116.671875 175.933594 116.792969 C 174.269531 119.789062 184.378906 143.417969 184.488281 143.65625 L 184.195312 143.792969 " fill-opacity="1" fill-rule="nonzero"/><path fill="#aa833f" d="M 190.710938 143.613281 L 190.398438 143.503906 C 190.503906 143.269531 200.339844 119.8125 198.644531 116.792969 C 198.578125 116.671875 198.472656 116.589844 198.34375 116.574219 C 195.339844 116.085938 192.320312 116.175781 189.648438 116.273438 C 188.648438 116.289062 187.683594 116.347656 186.777344 116.347656 L 186.777344 116.011719 C 187.683594 116.011719 188.648438 116.003906 189.640625 115.957031 C 192.320312 115.851562 195.351562 115.757812 198.386719 116.25 C 198.628906 116.273438 198.796875 116.429688 198.960938 116.65625 C 200.675781 119.789062 191.117188 142.652344 190.710938 143.613281 " fill-opacity="1" fill-rule="nonzero"/><path fill="#aa833f" d="M 188.253906 157.113281 L 186.613281 157.113281 L 186.613281 146.359375 L 188.253906 146.359375 L 188.253906 157.113281 " fill-opacity="1" fill-rule="nonzero"/><path fill="#aa833f" d="M 187.351562 142.460938 C 185.5 142.460938 184.039062 143.289062 184.039062 144.304688 L 184.039062 145.179688 C 184.039062 146.011719 185.003906 146.359375 187.351562 146.359375 C 189.648438 146.359375 190.660156 146.011719 190.660156 145.179688 L 190.660156 144.304688 C 190.660156 143.289062 189.164062 142.460938 187.351562 142.460938 Z M 187.351562 146.695312 C 185.53125 146.695312 183.695312 146.507812 183.695312 145.179688 L 183.695312 144.304688 C 183.695312 143.101562 185.335938 142.121094 187.351562 142.121094 C 189.347656 142.121094 190.976562 143.101562 190.976562 144.304688 L 190.976562 145.179688 C 190.976562 146.507812 189.132812 146.695312 187.351562 146.695312 " fill-opacity="1" fill-rule="nonzero"/><path fill="#aa833f" d="M 178.738281 186.585938 C 178.410156 187.5 180.089844 188.957031 181.136719 189.671875 C 183.019531 191.011719 184.972656 190.972656 186.929688 191.0625 C 186.992188 191.0625 187.09375 191.0625 187.175781 191.0625 C 187.234375 191.0625 187.320312 191.0625 187.410156 191.0625 C 189.363281 190.972656 191.582031 191.011719 193.4375 189.671875 C 194.78125 188.734375 195.886719 186.585938 195.886719 186.585938 L 178.738281 186.585938 " fill-opacity="1" fill-rule="nonzero"/><path fill="#aa833f" d="M 206.945312 164.417969 C 206.945312 165.960938 206.867188 167.207031 205.953125 167.207031 L 169.351562 169.058594 C 168.449219 169.058594 167.707031 168.210938 167.707031 166.71875 C 167.707031 165.167969 167.339844 162.777344 168.253906 162.777344 L 205.523438 162.777344 C 206.425781 162.777344 206.945312 162.90625 206.945312 164.417969 " fill-opacity="1" fill-rule="evenodd"/><path fill="#aa833f" d="M 206.628906 172.207031 C 206.628906 173.511719 206.121094 174.550781 205.222656 174.550781 L 169.613281 176.519531 C 168.714844 176.519531 167.964844 175.441406 167.964844 174.125 C 167.964844 172.847656 168.714844 171.785156 169.613281 171.785156 L 205.222656 169.832031 C 206.121094 169.832031 206.628906 170.886719 206.628906 172.207031 " fill-opacity="1" fill-rule="evenodd"/><path fill="#aa833f" d="M 179.71875 187.789062 C 180.695312 187.800781 181.308594 187.738281 181.71875 187.90625 L 193.074219 187.71875 C 193.410156 187.679688 193.820312 187.652344 194.359375 187.644531 C 197.640625 187.519531 199.882812 186.65625 202.09375 184.417969 C 203.542969 182.96875 204.523438 180.941406 205.144531 178.082031 L 169.445312 179.367188 C 170.082031 181.746094 170.957031 183.1875 172.179688 184.417969 C 174.425781 186.65625 176.433594 187.644531 179.71875 187.789062 " fill-opacity="1" fill-rule="nonzero"/><path fill="#aa833f" d="M 143.277344 110.488281 C 143.277344 110.488281 142.953125 111.085938 142.328125 111.972656 C 142.03125 112.410156 141.660156 112.949219 141.214844 113.476562 C 140.996094 113.761719 140.761719 114.039062 140.53125 114.347656 C 140.410156 114.519531 140.25 114.519531 140.085938 114.464844 C 139.917969 114.449219 139.777344 114.484375 139.621094 114.519531 C 137.089844 114.933594 133.703125 115.5 130.328125 116.0625 C 126.964844 116.628906 123.570312 117.191406 121.054688 117.613281 C 120.878906 117.65625 120.730469 117.640625 120.578125 117.71875 C 120.4375 117.839844 120.292969 117.839844 120.121094 117.707031 C 119.789062 117.496094 119.464844 117.296875 119.175781 117.105469 C 118.597656 116.746094 118.074219 116.351562 117.632812 116.050781 C 116.773438 115.417969 116.261719 114.992188 116.261719 114.992188 C 116.261719 114.992188 116.609375 114.40625 117.21875 113.542969 C 117.515625 113.105469 117.90625 112.578125 118.332031 112.039062 C 118.5625 111.765625 118.773438 111.472656 119.03125 111.171875 C 119.140625 110.996094 119.296875 110.957031 119.460938 111.015625 C 119.617188 111.035156 119.785156 110.980469 119.953125 110.957031 C 122.46875 110.53125 125.84375 109.976562 129.226562 109.421875 C 132.59375 108.851562 135.96875 108.289062 138.515625 107.867188 C 138.660156 107.832031 138.824219 107.832031 138.972656 107.757812 C 139.101562 107.664062 139.257812 107.621094 139.414062 107.722656 C 139.753906 107.929688 140.070312 108.144531 140.363281 108.316406 C 140.957031 108.691406 141.46875 109.074219 141.910156 109.386719 C 142.773438 110.027344 143.277344 110.488281 143.277344 110.488281 " fill-opacity="1" fill-rule="nonzero"/><path fill="#aa833f" d="M 143.890625 91.164062 C 143.890625 91.164062 143.328125 91.550781 142.386719 92.09375 C 141.914062 92.339844 141.355469 92.664062 140.71875 92.941406 C 140.410156 93.085938 140.070312 93.253906 139.722656 93.425781 C 139.542969 93.519531 139.394531 93.457031 139.265625 93.347656 C 139.136719 93.246094 138.984375 93.214844 138.824219 93.164062 C 136.363281 92.441406 133.082031 91.457031 129.8125 90.484375 C 126.515625 89.511719 123.242188 88.53125 120.78125 87.800781 C 120.636719 87.753906 120.484375 87.691406 120.320312 87.699219 C 120.144531 87.71875 120.011719 87.664062 119.917969 87.472656 C 119.707031 87.15625 119.503906 86.835938 119.324219 86.527344 C 118.972656 85.945312 118.648438 85.371094 118.410156 84.894531 C 117.910156 83.960938 117.632812 83.347656 117.632812 83.347656 C 117.632812 83.347656 118.1875 82.984375 119.132812 82.464844 C 119.59375 82.21875 120.171875 81.910156 120.800781 81.609375 C 121.101562 81.464844 121.445312 81.300781 121.796875 81.132812 C 121.976562 81.019531 122.140625 81.0625 122.257812 81.183594 C 122.386719 81.269531 122.550781 81.28125 122.695312 81.34375 C 125.164062 82.066406 128.4375 83.054688 131.714844 84.015625 C 135.011719 85.011719 138.289062 85.976562 140.746094 86.71875 C 140.917969 86.738281 141.046875 86.828125 141.214844 86.816406 C 141.386719 86.792969 141.527344 86.816406 141.632812 86.992188 C 141.839844 87.316406 142.027344 87.640625 142.214844 87.941406 C 142.589844 88.519531 142.878906 89.105469 143.140625 89.578125 C 143.640625 90.53125 143.890625 91.164062 143.890625 91.164062 " fill-opacity="1" fill-rule="nonzero"/><path fill="#aa833f" d="M 152.167969 74.265625 C 152.167969 74.265625 151.480469 74.34375 150.414062 74.367188 C 149.867188 74.375 149.222656 74.386719 148.542969 74.34375 C 148.1875 74.316406 147.816406 74.304688 147.421875 74.292969 C 147.222656 74.277344 147.128906 74.164062 147.058594 74.003906 C 147.007812 73.851562 146.871094 73.765625 146.765625 73.644531 C 144.929688 71.84375 142.5 69.429688 140.070312 67.019531 C 137.632812 64.605469 135.210938 62.195312 133.390625 60.382812 C 133.265625 60.273438 133.171875 60.148438 133.027344 60.074219 C 132.855469 60.027344 132.777344 59.910156 132.777344 59.691406 C 132.757812 59.304688 132.722656 58.925781 132.71875 58.589844 C 132.644531 57.902344 132.664062 57.238281 132.664062 56.714844 C 132.664062 55.636719 132.722656 54.988281 132.722656 54.988281 C 132.722656 54.988281 133.375 54.914062 134.445312 54.902344 C 134.980469 54.902344 135.636719 54.890625 136.3125 54.945312 C 136.675781 54.957031 137.042969 54.964844 137.4375 54.996094 C 137.660156 54.988281 137.765625 55.085938 137.816406 55.242188 C 137.890625 55.386719 138.019531 55.484375 138.132812 55.601562 C 139.945312 57.40625 142.382812 59.816406 144.820312 62.226562 C 147.246094 64.640625 149.683594 67.039062 151.496094 68.863281 C 151.617188 68.972656 151.703125 69.097656 151.875 69.160156 C 152.023438 69.222656 152.140625 69.308594 152.140625 69.535156 C 152.167969 69.914062 152.191406 70.28125 152.210938 70.640625 C 152.265625 71.320312 152.265625 71.960938 152.253906 72.503906 C 152.238281 73.578125 152.167969 74.265625 152.167969 74.265625 " fill-opacity="1" fill-rule="nonzero"/><path fill="#aa833f" d="M 167.617188 63.742188 C 167.617188 63.742188 166.953125 63.542969 165.941406 63.179688 C 165.441406 62.976562 164.835938 62.738281 164.21875 62.433594 C 163.898438 62.285156 163.5625 62.128906 163.199219 61.976562 C 163.007812 61.890625 162.984375 61.742188 162.984375 61.566406 C 162.984375 61.414062 162.886719 61.285156 162.828125 61.125 C 161.820312 58.753906 160.472656 55.621094 159.125 52.46875 C 157.777344 49.3125 156.4375 46.160156 155.429688 43.800781 C 155.367188 43.652344 155.328125 43.511719 155.214844 43.375 C 155.082031 43.28125 155.03125 43.136719 155.121094 42.929688 C 155.261719 42.566406 155.375 42.207031 155.488281 41.875 C 155.6875 41.226562 155.945312 40.625 156.132812 40.140625 C 156.546875 39.132812 156.855469 38.554688 156.855469 38.554688 C 156.855469 38.554688 157.488281 38.738281 158.476562 39.132812 C 158.976562 39.328125 159.585938 39.554688 160.195312 39.863281 C 160.523438 40.015625 160.859375 40.171875 161.21875 40.328125 C 161.421875 40.394531 161.492188 40.542969 161.46875 40.714844 C 161.492188 40.875 161.570312 41.011719 161.621094 41.160156 C 162.640625 43.523438 163.980469 46.664062 165.320312 49.828125 C 166.675781 52.964844 168.023438 56.117188 169.027344 58.496094 C 169.097656 58.613281 169.128906 58.785156 169.238281 58.890625 C 169.359375 59.007812 169.449219 59.136719 169.375 59.332031 C 169.238281 59.6875 169.128906 60.050781 169.019531 60.382812 C 168.816406 61.050781 168.550781 61.644531 168.339844 62.140625 C 167.917969 63.125 167.617188 63.742188 167.617188 63.742188 " fill-opacity="1" fill-rule="nonzero"/><g clip-path="url(#693b318074)"><path fill="#aa833f" d="M 188.417969 59.609375 C 188.417969 59.609375 187.882812 59.199219 187.066406 58.496094 C 186.679688 58.117188 186.195312 57.6875 185.722656 57.175781 C 185.496094 56.921875 185.226562 56.652344 184.972656 56.378906 C 184.8125 56.230469 184.832031 56.070312 184.890625 55.921875 C 184.945312 55.765625 184.914062 55.621094 184.914062 55.445312 C 184.839844 52.882812 184.722656 49.449219 184.609375 46.039062 C 184.53125 42.617188 184.414062 39.195312 184.320312 36.628906 C 184.304688 36.464844 184.332031 36.308594 184.277344 36.15625 C 184.1875 36.007812 184.1875 35.855469 184.34375 35.699219 C 184.609375 35.40625 184.839844 35.113281 185.058594 34.847656 C 185.5 34.3125 185.957031 33.84375 186.308594 33.460938 C 187.0625 32.679688 187.558594 32.246094 187.558594 32.246094 C 187.558594 32.246094 188.085938 32.660156 188.871094 33.382812 C 189.253906 33.742188 189.730469 34.183594 190.1875 34.695312 C 190.433594 34.953125 190.710938 35.214844 190.96875 35.503906 C 191.132812 35.640625 191.144531 35.78125 191.078125 35.9375 C 191.027344 36.097656 191.058594 36.253906 191.058594 36.414062 C 191.144531 38.964844 191.242188 42.390625 191.367188 45.832031 C 191.46875 49.242188 191.574219 52.65625 191.660156 55.226562 C 191.664062 55.390625 191.644531 55.550781 191.710938 55.699219 C 191.78125 55.855469 191.8125 56.003906 191.675781 56.148438 C 191.414062 56.457031 191.175781 56.730469 190.960938 57 C 190.519531 57.542969 190.070312 58.011719 189.691406 58.398438 C 188.945312 59.179688 188.417969 59.609375 188.417969 59.609375 " fill-opacity="1" fill-rule="nonzero"/></g><path fill="#aa833f" d="M 231.304688 110.488281 C 231.304688 110.488281 231.808594 110.027344 232.683594 109.386719 C 233.113281 109.074219 233.640625 108.691406 234.222656 108.316406 C 234.515625 108.144531 234.832031 107.929688 235.179688 107.722656 C 235.335938 107.621094 235.476562 107.664062 235.613281 107.757812 C 235.765625 107.832031 235.933594 107.832031 236.078125 107.867188 C 238.613281 108.289062 241.996094 108.851562 245.375 109.421875 C 248.746094 109.976562 252.132812 110.53125 254.65625 110.957031 C 254.820312 110.980469 254.964844 111.035156 255.121094 111.015625 C 255.292969 110.957031 255.449219 110.996094 255.5625 111.171875 C 255.808594 111.472656 256.035156 111.765625 256.261719 112.039062 C 256.679688 112.578125 257.066406 113.105469 257.363281 113.542969 C 257.972656 114.40625 258.328125 114.992188 258.328125 114.992188 C 258.328125 114.992188 257.824219 115.417969 256.957031 116.050781 C 256.507812 116.351562 255.988281 116.746094 255.40625 117.105469 C 255.121094 117.296875 254.800781 117.496094 254.464844 117.707031 C 254.296875 117.839844 254.148438 117.839844 254.015625 117.71875 C 253.855469 117.640625 253.703125 117.65625 253.554688 117.613281 C 250.996094 117.191406 247.621094 116.628906 244.261719 116.0625 C 240.882812 115.5 237.507812 114.933594 234.964844 114.519531 C 234.804688 114.484375 234.65625 114.449219 234.5 114.464844 C 234.34375 114.519531 234.195312 114.519531 234.070312 114.347656 C 233.820312 114.039062 233.582031 113.761719 233.375 113.476562 C 232.941406 112.949219 232.550781 112.410156 232.257812 111.972656 C 231.632812 111.085938 231.304688 110.488281 231.304688 110.488281 " fill-opacity="1" fill-rule="nonzero"/><path fill="#aa833f" d="M 230.695312 91.164062 C 230.695312 91.164062 230.949219 90.53125 231.449219 89.578125 C 231.707031 89.105469 232.003906 88.519531 232.371094 87.941406 C 232.566406 87.640625 232.761719 87.316406 232.957031 86.992188 C 233.058594 86.816406 233.210938 86.792969 233.375 86.816406 C 233.542969 86.828125 233.683594 86.738281 233.828125 86.71875 C 236.304688 85.976562 239.578125 85.011719 242.867188 84.015625 C 246.15625 83.054688 249.433594 82.066406 251.890625 81.34375 C 252.042969 81.28125 252.207031 81.269531 252.324219 81.183594 C 252.457031 81.0625 252.613281 81.019531 252.785156 81.132812 C 253.140625 81.300781 253.46875 81.464844 253.800781 81.609375 C 254.425781 81.910156 254.992188 82.21875 255.460938 82.464844 C 256.402344 82.984375 256.957031 83.347656 256.957031 83.347656 C 256.957031 83.347656 256.679688 83.960938 256.1875 84.894531 C 255.925781 85.371094 255.632812 85.945312 255.257812 86.527344 C 255.082031 86.835938 254.882812 87.15625 254.675781 87.472656 C 254.589844 87.664062 254.4375 87.71875 254.269531 87.699219 C 254.113281 87.691406 253.972656 87.753906 253.800781 87.800781 C 251.351562 88.53125 248.0625 89.511719 244.777344 90.484375 C 241.503906 91.457031 238.21875 92.441406 235.765625 93.164062 C 235.605469 93.214844 235.453125 93.246094 235.320312 93.347656 C 235.195312 93.457031 235.046875 93.519531 234.875 93.425781 C 234.515625 93.253906 234.183594 93.085938 233.851562 92.941406 C 233.230469 92.664062 232.667969 92.339844 232.1875 92.09375 C 231.253906 91.550781 230.695312 91.164062 230.695312 91.164062 " fill-opacity="1" fill-rule="nonzero"/><path fill="#aa833f" d="M 222.417969 74.265625 C 222.417969 74.265625 222.351562 73.578125 222.335938 72.503906 C 222.328125 71.960938 222.3125 71.320312 222.386719 70.640625 C 222.386719 70.28125 222.417969 69.914062 222.449219 69.535156 C 222.449219 69.308594 222.570312 69.222656 222.722656 69.160156 C 222.878906 69.097656 222.972656 68.972656 223.070312 68.863281 C 224.90625 67.039062 227.339844 64.640625 229.773438 62.226562 C 232.199219 59.816406 234.628906 57.40625 236.457031 55.601562 C 236.5625 55.484375 236.707031 55.386719 236.777344 55.242188 C 236.835938 55.085938 236.933594 54.988281 237.148438 54.996094 C 237.542969 54.964844 237.914062 54.957031 238.269531 54.945312 C 238.953125 54.890625 239.609375 54.902344 240.140625 54.902344 C 241.210938 54.914062 241.867188 54.988281 241.867188 54.988281 C 241.867188 54.988281 241.921875 55.636719 241.921875 56.714844 C 241.921875 57.238281 241.945312 57.902344 241.871094 58.589844 C 241.867188 58.925781 241.832031 59.304688 241.828125 59.691406 C 241.828125 59.910156 241.71875 60.027344 241.554688 60.074219 C 241.421875 60.148438 241.3125 60.273438 241.203125 60.382812 C 239.371094 62.195312 236.953125 64.605469 234.511719 67.019531 C 232.082031 69.429688 229.65625 71.84375 227.824219 73.644531 C 227.722656 73.765625 227.582031 73.851562 227.53125 74.003906 C 227.460938 74.164062 227.371094 74.277344 227.167969 74.292969 C 226.773438 74.304688 226.394531 74.316406 226.046875 74.34375 C 225.375 74.386719 224.714844 74.375 224.164062 74.367188 C 223.101562 74.34375 222.417969 74.265625 222.417969 74.265625 " fill-opacity="1" fill-rule="nonzero"/><path fill="#aa833f" d="M 206.984375 63.742188 C 206.984375 63.742188 206.664062 63.125 206.246094 62.140625 C 206.03125 61.644531 205.78125 61.050781 205.570312 60.382812 C 205.453125 60.050781 205.34375 59.6875 205.21875 59.332031 C 205.140625 59.136719 205.21875 59.007812 205.34375 58.890625 C 205.453125 58.785156 205.488281 58.613281 205.566406 58.496094 C 206.566406 56.117188 207.914062 52.964844 209.273438 49.828125 C 210.613281 46.664062 211.960938 43.523438 212.96875 41.160156 C 213.007812 41.011719 213.113281 40.875 213.121094 40.714844 C 213.113281 40.542969 213.175781 40.394531 213.371094 40.328125 C 213.738281 40.171875 214.066406 40.015625 214.382812 39.863281 C 215.007812 39.554688 215.609375 39.328125 216.113281 39.132812 C 217.101562 38.738281 217.734375 38.554688 217.734375 38.554688 C 217.734375 38.554688 218.039062 39.132812 218.453125 40.140625 C 218.644531 40.625 218.886719 41.226562 219.09375 41.875 C 219.222656 42.207031 219.34375 42.566406 219.472656 42.929688 C 219.546875 43.136719 219.5 43.28125 219.378906 43.375 C 219.261719 43.511719 219.222656 43.652344 219.152344 43.800781 C 218.15625 46.160156 216.808594 49.3125 215.46875 52.46875 C 214.105469 55.621094 212.773438 58.753906 211.757812 61.125 C 211.703125 61.285156 211.617188 61.414062 211.617188 61.566406 C 211.617188 61.742188 211.582031 61.890625 211.378906 61.976562 C 211.023438 62.128906 210.699219 62.285156 210.363281 62.433594 C 209.753906 62.738281 209.152344 62.976562 208.652344 63.179688 C 207.636719 63.542969 206.984375 63.742188 206.984375 63.742188 " fill-opacity="1" fill-rule="nonzero"/></svg>