<svg xmlns="http://www.w3.org/2000/svg" xmlns:xlink="http://www.w3.org/1999/xlink" width="500" zoomAndPan="magnify" viewBox="0 0 375 374.999991" height="500" preserveAspectRatio="xMidYMid meet" version="1.0"><defs><clipPath id="f0b081dffd"><path d="M 51 132 L 323.984375 132 L 323.984375 316 L 51 316 Z M 51 132 " clip-rule="nonzero"/></clipPath><clipPath id="ca272f12ca"><path d="M 90 329 L 285 329 L 285 372.894531 L 90 372.894531 Z M 90 329 " clip-rule="nonzero"/></clipPath><clipPath id="803a5a4dfe"><path d="M 84 2.394531 L 291 2.394531 L 291 56 L 84 56 Z M 84 2.394531 " clip-rule="nonzero"/></clipPath></defs><g clip-path="url(#f0b081dffd)"><path fill="#aa833f" d="M 301.605469 132.96875 L 73.386719 132.96875 C 61.125 132.96875 51.175781 142.917969 51.175781 155.179688 L 51.175781 293.777344 C 51.175781 306.039062 61.125 315.988281 73.386719 315.988281 L 301.605469 315.988281 C 313.867188 315.988281 323.816406 306.039062 323.816406 293.777344 L 323.816406 155.179688 C 323.816406 142.996094 313.867188 132.96875 301.605469 132.96875 Z M 81.023438 277.425781 C 81.023438 281.050781 78.09375 283.980469 74.46875 283.980469 C 70.84375 283.980469 67.910156 281.050781 67.910156 277.425781 L 67.910156 171.609375 C 67.910156 167.984375 70.84375 165.054688 74.46875 165.054688 C 78.09375 165.054688 81.023438 167.984375 81.023438 171.609375 Z M 163.394531 261.230469 C 163.394531 273.800781 153.136719 283.980469 140.640625 283.980469 L 123.363281 283.980469 C 110.792969 283.980469 100.613281 273.800781 100.613281 261.230469 L 100.613281 189.117188 C 100.613281 176.546875 110.792969 166.363281 123.363281 166.363281 L 140.640625 166.363281 C 153.214844 166.363281 163.394531 176.621094 163.394531 189.117188 Z M 235.277344 261.230469 C 235.277344 273.800781 225.09375 283.980469 212.523438 283.980469 L 195.246094 283.980469 C 182.675781 283.980469 172.496094 273.800781 172.496094 261.230469 L 172.496094 189.117188 C 172.496094 176.546875 182.675781 166.363281 195.246094 166.363281 L 212.523438 166.363281 C 225.09375 166.363281 235.277344 176.621094 235.277344 189.117188 Z M 307.082031 261.230469 C 307.082031 273.800781 296.898438 283.980469 284.328125 283.980469 L 267.050781 283.980469 C 254.480469 283.980469 244.300781 273.800781 244.300781 261.230469 L 244.300781 189.117188 C 244.300781 176.546875 254.480469 166.363281 267.050781 166.363281 L 284.328125 166.363281 C 296.898438 166.363281 307.082031 176.621094 307.082031 189.117188 Z M 307.082031 261.230469 " fill-opacity="1" fill-rule="nonzero"/></g><path fill="#959595" d="M 140.5625 179.476562 L 123.289062 179.476562 C 117.964844 179.476562 113.648438 183.796875 113.648438 189.117188 L 113.648438 261.230469 C 113.648438 266.550781 117.964844 270.871094 123.289062 270.871094 L 140.5625 270.871094 C 145.886719 270.871094 150.203125 266.550781 150.203125 261.230469 L 150.203125 189.117188 C 150.203125 183.796875 145.886719 179.476562 140.5625 179.476562 Z M 140.5625 179.476562 " fill-opacity="1" fill-rule="nonzero"/><path fill="#959595" d="M 212.445312 179.476562 L 195.167969 179.476562 C 189.847656 179.476562 185.527344 183.796875 185.527344 189.117188 L 185.527344 261.230469 C 185.527344 266.550781 189.847656 270.871094 195.167969 270.871094 L 212.445312 270.871094 C 217.769531 270.871094 222.085938 266.550781 222.085938 261.230469 L 222.085938 189.117188 C 222.085938 183.796875 217.769531 179.476562 212.445312 179.476562 Z M 212.445312 179.476562 " fill-opacity="1" fill-rule="nonzero"/><path fill="#959595" d="M 284.328125 179.476562 L 267.050781 179.476562 C 261.730469 179.476562 257.410156 183.796875 257.410156 189.117188 L 257.410156 261.230469 C 257.410156 266.550781 261.730469 270.871094 267.050781 270.871094 L 284.328125 270.871094 C 289.648438 270.871094 293.96875 266.550781 293.96875 261.230469 L 293.96875 189.117188 C 293.96875 183.796875 289.648438 179.476562 284.328125 179.476562 Z M 284.328125 179.476562 " fill-opacity="1" fill-rule="nonzero"/><g clip-path="url(#ca272f12ca)"><path fill="#aa833f" d="M 90.816406 372.601562 L 284.171875 372.601562 L 284.171875 329.253906 L 90.816406 329.253906 Z M 121.898438 344.296875 L 253.089844 344.296875 C 256.714844 344.296875 259.648438 347.226562 259.648438 350.851562 C 259.648438 354.476562 256.714844 357.40625 253.089844 357.40625 L 121.898438 357.40625 C 118.273438 357.40625 115.34375 354.476562 115.34375 350.851562 C 115.34375 347.226562 118.273438 344.296875 121.898438 344.296875 Z M 121.898438 344.296875 " fill-opacity="1" fill-rule="nonzero"/></g><g clip-path="url(#803a5a4dfe)"><path fill="#aa833f" d="M 95.90625 53.453125 C 120.355469 29.003906 152.90625 15.503906 187.535156 15.503906 C 222.164062 15.503906 254.632812 29.003906 279.160156 53.453125 C 280.472656 54.761719 282.167969 55.378906 283.789062 55.378906 C 285.484375 55.378906 287.183594 54.761719 288.414062 53.453125 C 290.960938 50.90625 290.960938 46.742188 288.414062 44.117188 C 261.421875 17.203125 225.632812 2.394531 187.535156 2.394531 C 149.433594 2.394531 113.570312 17.203125 86.574219 44.117188 C 84.03125 46.664062 84.03125 50.828125 86.574219 53.453125 C 89.199219 55.996094 93.363281 55.996094 95.90625 53.453125 Z M 95.90625 53.453125 " fill-opacity="1" fill-rule="nonzero"/></g><path fill="#aa833f" d="M 135.398438 92.941406 C 132.851562 95.484375 132.851562 99.648438 135.398438 102.273438 C 137.941406 104.816406 142.105469 104.816406 144.730469 102.273438 C 156.144531 90.859375 171.335938 84.535156 187.535156 84.535156 C 203.730469 84.535156 218.925781 90.859375 230.339844 102.273438 C 231.652344 103.582031 233.347656 104.199219 234.96875 104.199219 C 236.664062 104.199219 238.359375 103.582031 239.59375 102.273438 C 242.140625 99.726562 242.140625 95.5625 239.59375 92.941406 C 225.710938 79.058594 207.203125 71.34375 187.535156 71.34375 C 167.789062 71.421875 149.355469 79.058594 135.398438 92.941406 Z M 135.398438 92.941406 " fill-opacity="1" fill-rule="nonzero"/><path fill="#aa833f" d="M 262.886719 78.980469 C 265.433594 76.433594 265.433594 72.269531 262.886719 69.648438 C 242.757812 49.519531 215.992188 38.410156 187.535156 38.410156 C 159.074219 38.410156 132.3125 49.519531 112.183594 69.648438 C 109.636719 72.191406 109.636719 76.359375 112.183594 78.980469 C 113.492188 80.292969 115.191406 80.910156 116.808594 80.910156 C 118.507812 80.910156 120.203125 80.292969 121.4375 78.980469 C 139.097656 61.316406 162.546875 51.601562 187.457031 51.601562 C 212.367188 51.601562 235.890625 61.316406 253.476562 78.980469 C 256.101562 81.601562 260.265625 81.601562 262.886719 78.980469 Z M 262.886719 78.980469 " fill-opacity="1" fill-rule="nonzero"/></svg>