<svg xmlns="http://www.w3.org/2000/svg" xmlns:xlink="http://www.w3.org/1999/xlink" width="500" zoomAndPan="magnify" viewBox="0 0 375 374.999991" height="500" preserveAspectRatio="xMidYMid meet" version="1.0"><defs><clipPath id="5b74c0e025"><path d="M 5.824219 5.824219 L 368.824219 5.824219 L 368.824219 368.824219 L 5.824219 368.824219 Z M 5.824219 5.824219 " clip-rule="nonzero"/></clipPath></defs><g clip-path="url(#5b74c0e025)"><path fill="#aa833f" d="M 369.164062 187.496094 C 369.164062 190.46875 369.09375 193.441406 368.945312 196.410156 C 368.800781 199.378906 368.582031 202.34375 368.292969 205.304688 C 368 208.261719 367.636719 211.210938 367.199219 214.152344 C 366.761719 217.09375 366.253906 220.023438 365.675781 222.9375 C 365.09375 225.855469 364.445312 228.753906 363.722656 231.636719 C 363 234.523438 362.207031 237.386719 361.34375 240.230469 C 360.480469 243.078125 359.546875 245.898438 358.546875 248.699219 C 357.542969 251.5 356.476562 254.269531 355.335938 257.019531 C 354.199219 259.765625 352.996094 262.480469 351.722656 265.167969 C 350.453125 267.859375 349.117188 270.511719 347.714844 273.132812 C 346.3125 275.757812 344.847656 278.34375 343.320312 280.894531 C 341.789062 283.441406 340.199219 285.953125 338.550781 288.425781 C 336.898438 290.898438 335.1875 293.328125 333.414062 295.714844 C 331.644531 298.105469 329.816406 300.449219 327.929688 302.746094 C 326.042969 305.042969 324.101562 307.296875 322.105469 309.496094 C 320.109375 311.699219 318.058594 313.855469 315.957031 315.957031 C 313.855469 318.058594 311.699219 320.109375 309.496094 322.105469 C 307.296875 324.101562 305.042969 326.042969 302.746094 327.929688 C 300.449219 329.816406 298.105469 331.644531 295.714844 333.414062 C 293.328125 335.1875 290.898438 336.898438 288.425781 338.550781 C 285.953125 340.199219 283.441406 341.789062 280.894531 343.320312 C 278.34375 344.847656 275.757812 346.3125 273.132812 347.714844 C 270.511719 349.117188 267.859375 350.453125 265.167969 351.722656 C 262.480469 352.996094 259.765625 354.199219 257.019531 355.335938 C 254.269531 356.476562 251.496094 357.542969 248.699219 358.546875 C 245.898438 359.546875 243.078125 360.480469 240.230469 361.34375 C 237.386719 362.207031 234.523438 363 231.636719 363.722656 C 228.753906 364.445312 225.855469 365.09375 222.9375 365.675781 C 220.023438 366.253906 217.09375 366.761719 214.152344 367.199219 C 211.210938 367.636719 208.261719 368 205.300781 368.292969 C 202.34375 368.582031 199.378906 368.800781 196.410156 368.945312 C 193.441406 369.09375 190.46875 369.164062 187.496094 369.164062 C 184.523438 369.164062 181.550781 369.09375 178.582031 368.945312 C 175.613281 368.800781 172.648438 368.582031 169.6875 368.292969 C 166.730469 368 163.78125 367.636719 160.839844 367.199219 C 157.898438 366.761719 154.96875 366.253906 152.054688 365.675781 C 149.136719 365.09375 146.238281 364.445312 143.355469 363.722656 C 140.46875 363 137.605469 362.207031 134.761719 361.34375 C 131.914062 360.480469 129.09375 359.546875 126.292969 358.546875 C 123.492188 357.542969 120.722656 356.476562 117.972656 355.335938 C 115.226562 354.199219 112.507812 352.996094 109.820312 351.722656 C 107.132812 350.453125 104.480469 349.117188 101.855469 347.714844 C 99.234375 346.3125 96.648438 344.847656 94.097656 343.320312 C 91.546875 341.789062 89.039062 340.199219 86.566406 338.550781 C 84.09375 336.898438 81.664062 335.1875 79.273438 333.414062 C 76.886719 331.644531 74.542969 329.816406 72.246094 327.929688 C 69.949219 326.042969 67.695312 324.101562 65.492188 322.105469 C 63.289062 320.109375 61.136719 318.058594 59.035156 315.957031 C 56.933594 313.855469 54.882812 311.699219 52.886719 309.496094 C 50.890625 307.296875 48.949219 305.042969 47.0625 302.746094 C 45.175781 300.449219 43.347656 298.105469 41.578125 295.714844 C 39.804688 293.328125 38.09375 290.898438 36.441406 288.425781 C 34.792969 285.953125 33.199219 283.441406 31.671875 280.894531 C 30.144531 278.34375 28.679688 275.757812 27.277344 273.132812 C 25.875 270.511719 24.539062 267.859375 23.269531 265.167969 C 21.996094 262.480469 20.792969 259.765625 19.65625 257.019531 C 18.515625 254.269531 17.449219 251.5 16.445312 248.699219 C 15.445312 245.898438 14.511719 243.078125 13.648438 240.230469 C 12.785156 237.386719 11.992188 234.523438 11.269531 231.636719 C 10.546875 228.753906 9.898438 225.855469 9.316406 222.9375 C 8.738281 220.023438 8.230469 217.09375 7.792969 214.152344 C 7.355469 211.210938 6.992188 208.261719 6.699219 205.304688 C 6.410156 202.34375 6.191406 199.378906 6.042969 196.410156 C 5.898438 193.441406 5.824219 190.46875 5.824219 187.496094 C 5.824219 184.523438 5.898438 181.550781 6.042969 178.582031 C 6.191406 175.613281 6.410156 172.648438 6.699219 169.6875 C 6.992188 166.730469 7.355469 163.78125 7.792969 160.839844 C 8.230469 157.898438 8.738281 154.96875 9.316406 152.054688 C 9.898438 149.136719 10.546875 146.238281 11.269531 143.355469 C 11.992188 140.46875 12.785156 137.605469 13.648438 134.761719 C 14.511719 131.914062 15.445312 129.09375 16.445312 126.292969 C 17.449219 123.492188 18.515625 120.722656 19.65625 117.972656 C 20.792969 115.226562 21.996094 112.511719 23.269531 109.820312 C 24.539062 107.132812 25.875 104.480469 27.277344 101.855469 C 28.679688 99.234375 30.144531 96.648438 31.671875 94.097656 C 33.199219 91.546875 34.792969 89.039062 36.441406 86.566406 C 38.09375 84.09375 39.804688 81.664062 41.578125 79.273438 C 43.347656 76.886719 45.175781 74.542969 47.0625 72.246094 C 48.949219 69.949219 50.890625 67.695312 52.886719 65.492188 C 54.882812 63.289062 56.933594 61.136719 59.035156 59.035156 C 61.136719 56.933594 63.289062 54.882812 65.492188 52.886719 C 67.695312 50.890625 69.949219 48.949219 72.246094 47.0625 C 74.542969 45.175781 76.886719 43.347656 79.273438 41.578125 C 81.664062 39.804688 84.09375 38.09375 86.566406 36.441406 C 89.039062 34.792969 91.546875 33.199219 94.097656 31.671875 C 96.648438 30.144531 99.234375 28.679688 101.855469 27.277344 C 104.480469 25.875 107.132812 24.539062 109.820312 23.269531 C 112.507812 21.996094 115.226562 20.792969 117.972656 19.65625 C 120.722656 18.515625 123.492188 17.449219 126.292969 16.445312 C 129.09375 15.445312 131.914062 14.511719 134.761719 13.648438 C 137.605469 12.785156 140.46875 11.992188 143.355469 11.269531 C 146.238281 10.546875 149.136719 9.898438 152.054688 9.316406 C 154.96875 8.738281 157.898438 8.230469 160.839844 7.792969 C 163.78125 7.355469 166.730469 6.992188 169.6875 6.699219 C 172.648438 6.410156 175.613281 6.191406 178.582031 6.046875 C 181.550781 5.898438 184.523438 5.824219 187.496094 5.824219 C 190.46875 5.824219 193.441406 5.898438 196.410156 6.046875 C 199.378906 6.191406 202.34375 6.410156 205.300781 6.699219 C 208.261719 6.992188 211.210938 7.355469 214.152344 7.792969 C 217.09375 8.230469 220.023438 8.738281 222.9375 9.316406 C 225.855469 9.898438 228.753906 10.546875 231.636719 11.269531 C 234.523438 11.992188 237.386719 12.785156 240.230469 13.648438 C 243.078125 14.511719 245.898438 15.445312 248.699219 16.445312 C 251.496094 17.449219 254.269531 18.515625 257.019531 19.65625 C 259.765625 20.792969 262.480469 21.996094 265.167969 23.269531 C 267.859375 24.539062 270.511719 25.875 273.132812 27.277344 C 275.757812 28.679688 278.34375 30.144531 280.894531 31.671875 C 283.441406 33.199219 285.953125 34.792969 288.425781 36.441406 C 290.898438 38.09375 293.328125 39.804688 295.714844 41.578125 C 298.105469 43.347656 300.449219 45.175781 302.746094 47.0625 C 305.042969 48.949219 307.296875 50.890625 309.496094 52.886719 C 311.699219 54.882812 313.855469 56.933594 315.957031 59.035156 C 318.058594 61.136719 320.109375 63.289062 322.105469 65.492188 C 324.101562 67.695312 326.042969 69.949219 327.929688 72.246094 C 329.816406 74.542969 331.644531 76.886719 333.414062 79.273438 C 335.1875 81.664062 336.898438 84.09375 338.550781 86.566406 C 340.199219 89.039062 341.789062 91.546875 343.320312 94.097656 C 344.847656 96.648438 346.3125 99.234375 347.714844 101.855469 C 349.117188 104.480469 350.453125 107.132812 351.722656 109.820312 C 352.996094 112.511719 354.199219 115.226562 355.335938 117.972656 C 356.476562 120.722656 357.542969 123.492188 358.546875 126.292969 C 359.546875 129.09375 360.480469 131.914062 361.34375 134.761719 C 362.207031 137.605469 363 140.46875 363.722656 143.355469 C 364.445312 146.238281 365.09375 149.136719 365.675781 152.054688 C 366.253906 154.96875 366.761719 157.898438 367.199219 160.839844 C 367.636719 163.78125 368 166.730469 368.292969 169.6875 C 368.582031 172.648438 368.800781 175.613281 368.945312 178.582031 C 369.09375 181.550781 369.164062 184.523438 369.164062 187.496094 Z M 369.164062 187.496094 " fill-opacity="1" fill-rule="nonzero"/></g><path fill="#fefefe" d="M 201.726562 103.777344 L 201.726562 99.417969 C 202.625 99.546875 203.523438 99.675781 204.417969 99.675781 C 205.316406 99.675781 206.214844 99.546875 207.113281 99.417969 L 207.113281 103.777344 C 206.214844 103.777344 205.316406 103.648438 204.417969 103.648438 C 203.523438 103.648438 202.625 103.777344 201.726562 103.777344 Z M 201.726562 103.777344 " fill-opacity="1" fill-rule="evenodd"/><path fill="#fefefe" d="M 132.75 283.265625 L 108.007812 240.316406 L 85.1875 253.265625 L 109.929688 296.34375 Z M 132.75 283.265625 " fill-opacity="1" fill-rule="evenodd"/><path fill="#fefefe" d="M 112.109375 236.597656 L 136.726562 279.421875 C 147.496094 269.164062 176.984375 268.78125 208.90625 269.421875 C 215.703125 269.546875 221.597656 269.675781 225.445312 269.421875 C 236.472656 269.035156 246.34375 259.421875 246.984375 258.652344 L 286.601562 212.367188 C 291.085938 205.957031 291.855469 200.316406 288.78125 197.113281 C 285.832031 194.164062 279.292969 193.648438 273.136719 197.753906 L 237.882812 225.703125 C 237.882812 228.777344 236.855469 231.597656 234.933594 233.777344 C 230.0625 239.421875 220.703125 239.675781 220.316406 239.675781 L 190.058594 239.675781 C 188.523438 239.675781 187.367188 238.523438 187.367188 236.984375 C 187.367188 235.574219 188.523438 234.292969 190.058594 234.292969 L 220.1875 234.292969 C 222.238281 234.292969 228.136719 233.394531 230.828125 230.1875 C 232.113281 228.777344 232.625 226.984375 232.367188 224.675781 C 231.34375 215.703125 218.265625 216.726562 217.753906 216.726562 L 196.726562 216.726562 C 190.828125 216.726562 184.417969 215.1875 177.496094 213.648438 C 156.855469 208.648438 133.390625 203.136719 112.109375 236.597656 Z M 112.109375 236.597656 " fill-opacity="1" fill-rule="evenodd"/><path fill="#fefefe" d="M 158.519531 183.90625 L 250.445312 183.90625 L 250.445312 191.46875 L 158.519531 191.46875 Z M 158.519531 183.90625 " fill-opacity="1" fill-rule="evenodd"/><path fill="#fefefe" d="M 155.828125 178.519531 L 262.113281 178.519531 C 265.703125 178.519531 268.011719 175.445312 268.011719 172.625 C 268.011719 169.035156 265.445312 166.339844 262.113281 166.339844 L 146.726562 166.339844 C 143.265625 166.339844 140.445312 169.164062 140.445312 172.625 C 140.445312 175.699219 143.394531 178.519531 146.726562 178.519531 Z M 155.828125 178.519531 " fill-opacity="1" fill-rule="evenodd"/><path fill="#fefefe" d="M 149.546875 160.957031 L 259.292969 160.957031 C 257.882812 132.109375 233.777344 109.160156 204.417969 109.160156 C 175.058594 109.160156 150.957031 132.109375 149.546875 160.957031 Z M 165.058594 150.957031 C 164.804688 152.109375 163.648438 152.75 162.496094 152.75 C 162.238281 152.75 161.984375 152.75 161.726562 152.625 C 160.316406 152.238281 159.546875 150.699219 159.929688 149.289062 C 166.339844 130.058594 184.164062 117.238281 204.417969 117.238281 C 205.957031 117.238281 207.113281 118.390625 207.113281 119.929688 C 207.113281 121.339844 205.957031 122.621094 204.417969 122.621094 C 186.597656 122.621094 170.699219 134.035156 165.058594 150.957031 Z M 165.058594 150.957031 " fill-opacity="1" fill-rule="evenodd"/><path fill="#fefefe" d="M 204.417969 94.289062 C 208.90625 94.289062 212.496094 90.441406 212.496094 85.699219 C 212.496094 81.210938 208.90625 77.621094 204.417969 77.621094 C 199.675781 77.621094 195.828125 81.210938 195.828125 85.699219 C 195.828125 90.441406 199.675781 94.289062 204.417969 94.289062 Z M 204.417969 94.289062 " fill-opacity="1" fill-rule="evenodd"/></svg>