<svg xmlns="http://www.w3.org/2000/svg" xmlns:xlink="http://www.w3.org/1999/xlink" width="500" zoomAndPan="magnify" viewBox="0 0 375 374.999991" height="500" preserveAspectRatio="xMidYMid meet" version="1.0"><defs><clipPath id="e94079a493"><path d="M 59 2.996094 L 147 2.996094 L 147 40 L 59 40 Z M 59 2.996094 " clip-rule="nonzero"/></clipPath><clipPath id="f9ab50d6f8"><path d="M 26 262 L 349 262 L 349 371.996094 L 26 371.996094 Z M 26 262 " clip-rule="nonzero"/></clipPath><clipPath id="f176393d88"><path d="M 2.996094 230 L 371.996094 230 L 371.996094 247 L 2.996094 247 Z M 2.996094 230 " clip-rule="nonzero"/></clipPath></defs><path fill="#aa833f" d="M 89.355469 134.5 L 89.355469 156.339844 L 105.058594 169.425781 L 120.761719 156.339844 L 120.761719 134.5 C 110.453125 137.179688 99.664062 137.179688 89.355469 134.5 Z M 89.355469 134.5 " fill-opacity="1" fill-rule="nonzero"/><path fill="#aa833f" d="M 191.421875 194.613281 C 191.421875 187.195312 186.363281 180.890625 179.125 179.28125 L 130.675781 168.515625 L 110.085938 185.675781 C 107.175781 188.101562 102.945312 188.101562 100.035156 185.675781 L 79.441406 168.515625 L 30.992188 179.285156 C 23.753906 180.894531 18.695312 187.195312 18.695312 194.613281 L 18.695312 214.972656 L 191.421875 214.972656 Z M 191.421875 194.613281 " fill-opacity="1" fill-rule="nonzero"/><path fill="#aa833f" d="M 105.058594 120.734375 C 131.359375 120.734375 152.164062 99.339844 152.164062 73.65625 C 152.121094 49.390625 152.261719 50.167969 152.050781 46.972656 C 138.539062 39.4375 131.636719 42.128906 119.699219 46.792969 C 110.417969 50.421875 98.921875 54.914062 81.820312 54.914062 C 74.867188 54.914062 66.984375 54.167969 57.953125 52.320312 L 57.953125 73.65625 C 57.953125 99.292969 78.714844 120.734375 105.058594 120.734375 Z M 105.058594 120.734375 " fill-opacity="1" fill-rule="nonzero"/><path fill="#aa833f" d="M 57.953125 293.484375 L 317.039062 293.484375 L 317.039062 309.1875 L 57.953125 309.1875 Z M 57.953125 293.484375 " fill-opacity="1" fill-rule="nonzero"/><g clip-path="url(#e94079a493)"><path fill="#aa833f" d="M 113.984375 32.167969 C 124.027344 28.246094 133.667969 24.484375 146.558594 27.832031 C 138.597656 13.058594 122.984375 2.996094 105.058594 2.996094 C 83.742188 2.996094 65.699219 17.230469 59.90625 36.691406 C 87.292969 42.582031 101.414062 37.078125 113.984375 32.167969 Z M 113.984375 32.167969 " fill-opacity="1" fill-rule="nonzero"/></g><path fill="#aa833f" d="M 238.527344 152.164062 L 266.007812 152.164062 L 266.007812 136.464844 C 266.007812 123.476562 276.570312 112.910156 289.558594 112.910156 C 302.570312 112.910156 313.113281 123.449219 313.113281 136.464844 L 313.113281 152.164062 L 340.589844 152.164062 C 349.25 152.164062 356.292969 145.121094 356.292969 136.464844 L 356.292969 65.804688 C 356.292969 57.144531 349.25 50.101562 340.589844 50.101562 L 238.527344 50.101562 C 229.867188 50.101562 222.824219 57.144531 222.824219 65.804688 L 222.824219 136.464844 C 222.824219 145.121094 229.867188 152.164062 238.527344 152.164062 Z M 238.527344 152.164062 " fill-opacity="1" fill-rule="nonzero"/><path fill="#aa833f" d="M 269.929688 199.273438 C 261.273438 199.273438 254.230469 206.316406 254.230469 214.972656 L 324.890625 214.972656 C 324.890625 206.316406 317.84375 199.273438 309.1875 199.273438 C 301.304688 199.273438 277.816406 199.273438 269.929688 199.273438 Z M 269.929688 199.273438 " fill-opacity="1" fill-rule="nonzero"/><path fill="#aa833f" d="M 297.410156 136.464844 C 297.410156 132.132812 293.886719 128.613281 289.558594 128.613281 C 285.230469 128.613281 281.707031 132.132812 281.707031 136.464844 C 281.707031 142.164062 281.707031 177.832031 281.707031 183.570312 L 297.410156 183.570312 C 297.410156 177.871094 297.410156 142.199219 297.410156 136.464844 Z M 297.410156 136.464844 " fill-opacity="1" fill-rule="nonzero"/><g clip-path="url(#f9ab50d6f8)"><path fill="#aa833f" d="M 26.304688 356.292969 C 26.304688 364.949219 33.351562 371.996094 42.007812 371.996094 L 332.980469 371.996094 C 341.640625 371.996094 348.683594 364.949219 348.683594 356.292969 L 348.683594 262.082031 L 26.304688 262.082031 Z M 42.25 285.632812 C 42.25 281.296875 45.765625 277.78125 50.101562 277.78125 L 324.886719 277.78125 C 329.222656 277.78125 332.738281 281.296875 332.738281 285.632812 L 332.738281 317.039062 C 332.738281 321.375 329.222656 324.886719 324.886719 324.886719 L 50.101562 324.886719 C 45.765625 324.886719 42.25 321.375 42.25 317.039062 Z M 50.101562 340.589844 L 324.886719 340.589844 C 329.222656 340.589844 332.738281 344.105469 332.738281 348.441406 C 332.738281 352.777344 329.222656 356.292969 324.886719 356.292969 L 50.101562 356.292969 C 45.765625 356.292969 42.25 352.777344 42.25 348.441406 C 42.25 344.105469 45.765625 340.589844 50.101562 340.589844 Z M 50.101562 340.589844 " fill-opacity="1" fill-rule="nonzero"/></g><g clip-path="url(#f176393d88)"><path fill="#aa833f" d="M 364.144531 230.675781 C 354.742188 230.675781 20.238281 230.675781 10.847656 230.675781 C 6.515625 230.675781 2.996094 234.199219 2.996094 238.527344 C 2.996094 242.855469 6.515625 246.378906 10.847656 246.378906 C 27.558594 246.378906 344.578125 246.378906 364.144531 246.378906 C 368.472656 246.378906 371.996094 242.855469 371.996094 238.527344 C 371.996094 234.199219 368.472656 230.675781 364.144531 230.675781 Z M 364.144531 230.675781 " fill-opacity="1" fill-rule="nonzero"/></g></svg>