<svg xmlns="http://www.w3.org/2000/svg" xmlns:xlink="http://www.w3.org/1999/xlink" width="500" zoomAndPan="magnify" viewBox="0 0 375 374.999991" height="500" preserveAspectRatio="xMidYMid meet" version="1.0"><defs><clipPath id="8853a70658"><path d="M 2.238281 11 L 372.738281 11 L 372.738281 364 L 2.238281 364 Z M 2.238281 11 " clip-rule="nonzero"/></clipPath></defs><g clip-path="url(#8853a70658)"><path fill="#aa833f" d="M 372.75 358 C 372.75 361.289062 370.082031 363.957031 366.796875 363.957031 L 8.195312 363.957031 C 4.90625 363.957031 2.238281 361.289062 2.238281 358 C 2.238281 354.710938 4.90625 352.042969 8.195312 352.042969 L 366.796875 352.042969 C 370.082031 352.042969 372.75 354.710938 372.75 358 Z M 295.257812 154.117188 C 294.738281 154.117188 294.230469 154.105469 293.710938 154.097656 C 291.285156 154.050781 289.304688 156.023438 289.304688 158.453125 L 289.304688 335.789062 C 289.304688 338.195312 291.246094 340.140625 293.65625 340.140625 L 296.859375 340.140625 C 299.269531 340.140625 301.214844 338.195312 301.214844 335.789062 L 301.214844 158.453125 C 301.214844 156.023438 299.234375 154.050781 296.804688 154.097656 C 296.296875 154.105469 295.777344 154.117188 295.257812 154.117188 Z M 248.890625 122.992188 C 237.023438 111.128906 229.679688 94.722656 229.679688 76.613281 C 229.679688 58.503906 237.015625 42.109375 248.890625 30.246094 C 260.746094 18.378906 277.148438 11.042969 295.257812 11.042969 C 313.367188 11.042969 329.761719 18.378906 341.628906 30.246094 C 353.492188 42.109375 360.839844 58.503906 360.839844 76.613281 C 360.839844 94.722656 353.492188 111.128906 341.628906 122.992188 C 329.761719 134.859375 313.367188 142.203125 295.257812 142.203125 C 277.148438 142.203125 260.746094 134.867188 248.890625 122.992188 Z M 275.074219 113.453125 C 275.074219 116.742188 277.742188 119.410156 281.03125 119.410156 C 284.320312 119.410156 286.988281 116.742188 286.988281 113.453125 L 286.988281 87.257812 L 303.4375 87.257812 C 308.929688 87.257812 313.921875 85.015625 317.535156 81.402344 C 321.148438 77.789062 323.390625 72.796875 323.390625 67.304688 L 323.390625 53.789062 C 323.390625 48.296875 321.148438 43.304688 317.535156 39.691406 C 313.921875 36.082031 308.929688 33.839844 303.4375 33.839844 L 281.03125 33.839844 C 277.742188 33.839844 275.074219 36.507812 275.074219 39.792969 Z M 309.117188 72.972656 C 310.578125 71.511719 311.476562 69.5 311.476562 67.296875 L 311.476562 53.789062 C 311.476562 51.585938 310.570312 49.578125 309.117188 48.113281 C 307.652344 46.648438 305.640625 45.742188 303.4375 45.742188 L 286.988281 45.742188 L 286.988281 75.335938 L 303.4375 75.335938 C 305.640625 75.34375 307.652344 74.4375 309.117188 72.972656 Z M 49.425781 211.546875 L 226.371094 211.546875 C 232.300781 211.546875 236.421875 205.644531 234.375 200.078125 L 211.292969 137.222656 C 210.058594 133.867188 206.863281 131.636719 203.289062 131.636719 L 72.507812 131.636719 C 68.933594 131.636719 65.734375 133.867188 64.503906 137.222656 L 41.421875 200.078125 C 39.375 205.636719 43.496094 211.546875 49.425781 211.546875 Z M 14.152344 295.910156 L 14.152344 230.90625 C 14.152344 226.792969 17.484375 223.457031 21.597656 223.457031 L 254.1875 223.457031 C 258.300781 223.457031 261.636719 226.792969 261.636719 230.90625 L 261.636719 295.910156 C 261.636719 300.023438 258.300781 303.359375 254.1875 303.359375 L 21.609375 303.359375 C 17.496094 303.359375 14.152344 300.023438 14.152344 295.910156 Z M 195.851562 263.40625 C 195.851562 269.890625 198.5 275.773438 202.75 280.0625 C 207.011719 284.324219 212.902344 286.964844 219.40625 286.964844 C 225.910156 286.964844 231.800781 284.324219 236.058594 280.0625 L 236.414062 279.683594 C 240.46875 275.441406 242.960938 269.707031 242.960938 263.417969 C 242.960938 256.941406 240.3125 251.050781 236.058594 246.761719 C 231.800781 242.5 225.910156 239.863281 219.40625 239.863281 C 212.902344 239.863281 207.011719 242.5 202.75 246.761719 L 202.398438 247.152344 C 198.34375 251.375 195.851562 257.117188 195.851562 263.40625 Z M 32.835938 263.40625 C 32.835938 269.699219 35.328125 275.441406 39.382812 279.671875 L 39.734375 280.054688 C 43.996094 284.3125 49.886719 286.953125 56.390625 286.953125 C 62.890625 286.953125 68.785156 284.3125 73.035156 280.042969 C 77.304688 275.773438 79.945312 269.882812 79.945312 263.40625 C 79.945312 257.117188 77.453125 251.375 73.394531 247.140625 L 73.042969 246.753906 C 68.785156 242.492188 62.890625 239.851562 56.390625 239.851562 C 49.886719 239.851562 43.996094 242.492188 39.746094 246.761719 C 35.484375 251.042969 32.835938 256.933594 32.835938 263.40625 Z M 48.15625 271.640625 C 50.257812 273.746094 53.175781 275.050781 56.390625 275.050781 C 59.605469 275.050781 62.523438 273.746094 64.652344 271.640625 C 66.746094 269.550781 68.042969 266.640625 68.042969 263.40625 C 68.042969 260.304688 66.847656 257.5 64.902344 255.421875 L 64.632812 255.171875 C 62.53125 253.070312 59.613281 251.765625 56.398438 251.765625 C 53.183594 251.765625 50.265625 253.070312 48.136719 255.171875 C 46.042969 257.265625 44.746094 260.175781 44.746094 263.40625 C 44.746094 266.511719 45.941406 269.316406 47.886719 271.390625 Z M 219.40625 275.050781 C 222.621094 275.050781 225.539062 273.746094 227.640625 271.640625 L 227.910156 271.390625 C 229.855469 269.328125 231.058594 266.511719 231.058594 263.40625 C 231.058594 260.175781 229.761719 257.265625 227.648438 255.171875 C 225.546875 253.070312 222.628906 251.765625 219.414062 251.765625 C 216.199219 251.765625 213.28125 253.070312 211.179688 255.171875 L 210.910156 255.421875 C 208.964844 257.5 207.773438 260.304688 207.773438 263.40625 C 207.773438 266.640625 209.070312 269.550781 211.179688 271.640625 C 213.273438 273.746094 216.191406 275.050781 219.40625 275.050781 Z M 202.148438 315.269531 C 199.730469 315.269531 197.769531 317.234375 197.769531 319.652344 L 197.769531 335.757812 C 197.769531 338.175781 199.730469 340.140625 202.148438 340.140625 L 234.023438 340.140625 C 236.441406 340.140625 238.402344 338.175781 238.402344 335.757812 L 238.402344 319.652344 C 238.402344 317.234375 236.441406 315.269531 234.023438 315.269531 Z M 41.773438 315.269531 C 39.355469 315.269531 37.390625 317.234375 37.390625 319.652344 L 37.390625 335.757812 C 37.390625 338.175781 39.355469 340.140625 41.773438 340.140625 L 73.644531 340.140625 C 76.0625 340.140625 78.027344 338.175781 78.027344 335.757812 L 78.027344 319.652344 C 78.027344 317.234375 76.0625 315.269531 73.644531 315.269531 Z M 41.773438 315.269531 " fill-opacity="1" fill-rule="evenodd"/></g></svg>