<svg xmlns="http://www.w3.org/2000/svg" xmlns:xlink="http://www.w3.org/1999/xlink" width="500" zoomAndPan="magnify" viewBox="0 0 375 374.999991" height="500" preserveAspectRatio="xMidYMid meet" version="1.0"><defs><clipPath id="c87efbc5cf"><path d="M 27.714844 3.042969 L 347.214844 3.042969 L 347.214844 372 L 27.714844 372 Z M 27.714844 3.042969 " clip-rule="nonzero"/></clipPath></defs><g clip-path="url(#c87efbc5cf)"><path fill="#aa833f" d="M 322.359375 273.644531 C 322.515625 273.617188 322.675781 273.601562 322.835938 273.589844 C 326.417969 273.160156 329.566406 272.148438 331.964844 270.742188 C 334.285156 269.382812 335.722656 267.808594 335.722656 266.359375 L 335.722656 158.042969 C 335.722656 153.816406 331.5625 150.804688 327.171875 150.804688 L 85.25 150.804688 C 80.859375 150.804688 76.695312 153.816406 76.695312 158.042969 L 76.695312 266.359375 C 76.695312 269.8125 83.949219 272.738281 87.664062 273.296875 C 89.875 273.628906 90.984375 273.816406 93.464844 273.816406 C 98.648438 273.816406 103.246094 272.640625 106.480469 270.742188 C 108.796875 269.378906 110.238281 267.808594 110.238281 266.359375 L 110.238281 217.207031 C 110.238281 214.015625 112.824219 211.429688 116.015625 211.429688 C 119.207031 211.429688 121.792969 214.015625 121.792969 217.207031 L 121.792969 266.359375 C 121.792969 267.808594 123.234375 269.378906 125.550781 270.742188 C 132.542969 274.84375 144.585938 274.84375 151.578125 270.742188 C 153.894531 269.378906 155.335938 267.808594 155.335938 266.359375 C 155.335938 263.167969 157.921875 260.578125 161.113281 260.578125 C 164.304688 260.578125 166.890625 263.167969 166.890625 266.359375 C 166.890625 267.808594 168.332031 269.378906 170.648438 270.742188 C 177.640625 274.84375 189.683594 274.84375 196.675781 270.742188 C 198.992188 269.378906 200.429688 267.808594 200.429688 266.359375 L 200.429688 241.78125 C 200.429688 238.59375 203.019531 236.003906 206.210938 236.003906 C 209.402344 236.003906 211.988281 238.59375 211.988281 241.78125 L 211.988281 266.359375 C 211.988281 267.808594 213.429688 269.378906 215.746094 270.742188 C 222.734375 274.84375 234.78125 274.84375 241.773438 270.742188 C 244.109375 269.367188 245.519531 267.820312 245.527344 266.339844 L 245.527344 193.433594 C 245.527344 190.242188 248.117188 187.65625 251.308594 187.65625 C 254.5 187.65625 257.085938 190.242188 257.085938 193.433594 L 257.085938 266.359375 C 257.085938 267.808594 258.523438 269.378906 260.84375 270.742188 C 267.832031 274.84375 279.878906 274.84375 286.867188 270.742188 C 289.1875 269.378906 290.625 267.808594 290.625 266.359375 C 290.625 263.167969 293.214844 260.578125 296.402344 260.578125 C 299.59375 260.578125 302.183594 263.167969 302.183594 266.359375 C 302.183594 267.808594 303.621094 269.378906 305.941406 270.742188 C 310.226562 273.257812 316.457031 274.257812 322.363281 273.640625 Z M 256.660156 91.167969 L 311.46875 91.167969 L 311.46875 78.628906 L 294.695312 57.398438 C 293.859375 56.34375 293.453125 55.082031 293.457031 53.832031 L 293.429688 53.832031 L 293.429688 37.785156 L 275.804688 37.785156 L 275.804688 53.832031 C 275.804688 55.367188 275.207031 56.761719 274.230469 57.796875 L 256.660156 78.75 L 256.660156 91.171875 Z M 323.023438 96.929688 L 323.023438 139.246094 L 327.171875 139.246094 C 337.882812 139.246094 347.28125 147.355469 347.28125 158.042969 L 347.28125 266.359375 C 347.28125 275.882812 338.035156 281.914062 329.027344 284.160156 L 329.027344 326.566406 C 346.042969 330.984375 352.046875 352.394531 339.464844 364.976562 C 330.507812 373.929688 315.992188 373.929688 307.035156 364.976562 C 294.457031 352.394531 300.457031 330.984375 317.472656 326.566406 L 317.472656 310.996094 L 92.777344 310.996094 L 92.777344 326.566406 C 109.789062 330.984375 115.792969 352.394531 103.210938 364.976562 C 94.253906 373.929688 79.738281 373.929688 70.785156 364.976562 C 58.203125 352.394531 64.203125 330.984375 81.21875 326.566406 L 81.21875 283.550781 C 72.949219 280.953125 65.140625 275.0625 65.140625 266.359375 L 65.140625 112.398438 L 31.269531 98.3125 C 28.324219 97.09375 26.929688 93.714844 28.152344 90.773438 C 29.375 87.832031 32.75 86.4375 35.691406 87.660156 L 72.792969 103.085938 C 75.0625 103.863281 76.695312 106.019531 76.695312 108.554688 L 76.695312 141.039062 C 79.296875 139.890625 82.199219 139.246094 85.25 139.246094 L 245.105469 139.246094 L 245.105469 76.660156 L 245.113281 76.660156 C 245.113281 75.355469 245.554688 74.039062 246.457031 72.957031 L 264.246094 51.746094 L 264.246094 9.082031 C 264.246094 5.890625 266.835938 3.304688 270.027344 3.304688 L 299.210938 3.304688 C 302.402344 3.304688 304.988281 5.890625 304.988281 9.082031 L 304.988281 51.867188 C 304.988281 51.867188 321.425781 72.671875 321.425781 72.671875 C 322.417969 73.707031 323.023438 75.113281 323.023438 76.660156 L 323.023438 96.933594 Z M 311.46875 102.726562 L 256.660156 102.726562 L 256.660156 116.828125 L 311.46875 116.828125 Z M 311.46875 128.386719 L 256.660156 128.386719 L 256.660156 139.246094 L 311.46875 139.246094 Z M 293.429688 26.230469 L 293.429688 14.859375 L 275.804688 14.859375 L 275.804688 26.230469 Z M 142.316406 111.996094 C 142.316406 104.117188 148.699219 97.734375 156.574219 97.734375 C 159.765625 97.734375 162.355469 95.148438 162.355469 91.957031 C 162.355469 88.765625 159.765625 86.179688 156.574219 86.179688 C 142.316406 86.179688 130.757812 97.738281 130.757812 111.996094 C 130.757812 115.1875 133.34375 117.773438 136.535156 117.773438 C 139.726562 117.773438 142.316406 115.1875 142.316406 111.996094 Z M 157.519531 64.992188 C 125.929688 67.75 100.765625 92.917969 98.003906 124.507812 L 93.683594 124.507812 C 90.492188 124.507812 87.90625 127.097656 87.90625 130.289062 C 87.90625 133.480469 90.492188 136.066406 93.683594 136.066406 L 232.917969 136.066406 C 236.109375 136.066406 238.695312 133.480469 238.695312 130.289062 C 238.695312 127.097656 236.109375 124.507812 232.917969 124.507812 L 228.59375 124.507812 C 225.835938 92.917969 200.667969 67.753906 169.078125 64.992188 L 169.078125 50.320312 C 169.078125 47.128906 166.492188 44.542969 163.300781 44.542969 C 160.109375 44.542969 157.519531 47.128906 157.519531 50.320312 Z M 216.984375 124.507812 C 214.085938 97.273438 191.03125 76.296875 163.300781 76.296875 C 135.566406 76.296875 112.515625 97.273438 109.617188 124.507812 Z M 331.292969 340.71875 C 324.148438 333.578125 311.878906 338.660156 311.878906 348.761719 C 311.878906 358.867188 324.148438 363.949219 331.292969 356.804688 C 335.734375 352.363281 335.730469 345.160156 331.292969 340.71875 Z M 95.039062 340.71875 C 87.894531 333.578125 75.625 338.660156 75.625 348.761719 C 75.625 358.867188 87.894531 363.949219 95.039062 356.804688 C 99.480469 352.363281 99.480469 345.160156 95.039062 340.71875 Z M 92.777344 285.371094 L 92.777344 299.4375 L 317.472656 299.4375 L 317.472656 285.351562 C 309.59375 285.082031 301.675781 282.621094 296.402344 278.019531 C 285.1875 287.8125 262.527344 287.816406 251.308594 278.019531 C 240.089844 287.8125 217.425781 287.8125 206.210938 278.019531 C 194.996094 287.8125 172.332031 287.816406 161.113281 278.019531 C 149.898438 287.8125 127.230469 287.8125 116.015625 278.019531 C 110.273438 283.035156 101.398438 285.507812 92.777344 285.371094 Z M 92.777344 285.371094 " fill-opacity="1" fill-rule="evenodd"/></g></svg>